<?xml version="1.0" encoding="utf-8"?>
<!-- Generator: Adobe Illustrator 19.2.1, SVG Export Plug-In . SVG Version: 6.00 Build 0)  -->
<svg version="1.1" id="Layer_1" focusable="false" xmlns="http://www.w3.org/2000/svg" xmlns:xlink="http://www.w3.org/1999/xlink"
	 x="0px" y="0px" viewBox="0 0 24 24" style="enable-background:new 0 0 24 24;" xml:space="preserve">
<g>
	<path d="M3.7,1.2l10.4,10.4c0.2,0.2,0.2,0.6,0,0.8L3.7,22.8c-0.2,0.2-0.6,0.2-0.8,0l-1-1c-0.2-0.2-0.2-0.6,0-0.8l9-9l-9-9
		c-0.2-0.2-0.2-0.6,0-0.8l1-1C3.1,0.9,3.5,0.9,3.7,1.2z M10.8,1.2l-1,1C9.6,2.4,9.6,2.8,9.9,3l9,9l-9,9c-0.2,0.2-0.2,0.6,0,0.8l1,1
		c0.2,0.2,0.6,0.2,0.8,0l10.4-10.4c0.2-0.2,0.2-0.6,0-0.8L11.7,1.2C11.5,0.9,11.1,0.9,10.8,1.2z"/>
</g>
</svg>
