<?xml version="1.0" encoding="utf-8"?>
<!-- Generator: Adobe Illustrator 19.2.1, SVG Export Plug-In . SVG Version: 6.00 Build 0)  -->
<svg version="1.1" id="Capa_1" xmlns="http://www.w3.org/2000/svg" xmlns:xlink="http://www.w3.org/1999/xlink" x="0px" y="0px"
	 viewBox="0 0 24 24" style="enable-background:new 0 0 24 24;" xml:space="preserve">
<g>
	<g>
		<g>
			<polygon points="20.3,10.6 20.3,7.9 18.9,7.9 18.9,10.6 16.1,10.6 16.1,12 18.9,12 18.9,14.8 20.3,14.8 20.3,12 23,12 23,10.6 
							"/>
		</g>
	</g>
	<g>
		<g>
			<path d="M7.9,10.6v2.8h3.9c-0.6,1.6-2.1,2.8-3.9,2.8c-2.3,0-4.1-1.9-4.1-4.1s1.9-4.1,4.1-4.1c1,0,1.9,0.4,2.7,1l1.8-2.1
				c-1.2-1.1-2.8-1.7-4.5-1.7C4.1,5.1,1,8.2,1,12s3.1,6.9,6.9,6.9s6.9-3.1,6.9-6.9v-1.4H7.9z"/>
		</g>
	</g>
</g>
</svg>
