<?xml version="1.0" encoding="utf-8"?>
<!-- Generator: Adobe Illustrator 19.2.1, SVG Export Plug-In . SVG Version: 6.00 Build 0)  -->
<svg version="1.1" id="Layer_1" xmlns="http://www.w3.org/2000/svg" xmlns:xlink="http://www.w3.org/1999/xlink" x="0px" y="0px"
	 viewBox="0 0 24 24" style="enable-background:new 0 0 24 24;" xml:space="preserve">
<g>
	<path d="M17,1H7C3.7,1,1,3.7,1,7V17c0,3.3,2.7,6,6,6H17c3.3,0,6-2.7,6-6V7C23,3.7,20.3,1,17,1z M12,18c-3.3,0-6-2.7-6-6s2.7-6,6-6
		s6,2.7,6,6S15.3,18,12,18z M18.2,7.4c-1,0-1.8-0.8-1.8-1.8s0.8-1.8,1.8-1.8s1.8,0.8,1.8,1.8S19.1,7.4,18.2,7.4z"/>
	<path d="M12,7.3c-2.6,0-4.7,2.1-4.7,4.7c0,2.6,2.1,4.7,4.7,4.7c2.6,0,4.7-2.1,4.7-4.7C16.7,9.4,14.6,7.3,12,7.3z"/>
	<path d="M18.2,5.1c-0.3,0-0.5,0.2-0.5,0.5s0.2,0.5,0.5,0.5c0.3,0,0.5-0.2,0.5-0.5S18.4,5.1,18.2,5.1z"/>
</g>
</svg>
