<?xml version="1.0" encoding="utf-8"?>
<!-- Generator: Adobe Illustrator 19.2.1, SVG Export Plug-In . SVG Version: 6.00 Build 0)  -->
<svg version="1.1" id="Capa_1" xmlns="http://www.w3.org/2000/svg" xmlns:xlink="http://www.w3.org/1999/xlink" x="0px" y="0px"
	 viewBox="0 0 24 24" style="enable-background:new 0 0 24 24;" xml:space="preserve">
<g>
	<g>
		<path d="M20.8,12.4c-0.1-0.5-0.3-0.9-0.7-1.2c-0.4-0.3-0.8-0.5-1.3-0.6c-1.5-0.2-3.8-0.2-6.8-0.2c-3,0-5.3,0.1-6.8,0.2
			c-0.5,0.1-0.9,0.2-1.3,0.6c-0.4,0.3-0.6,0.7-0.7,1.2c-0.2,0.9-0.3,2.4-0.3,4.3C2.9,18.6,3,20,3.2,21c0.1,0.5,0.3,0.9,0.7,1.2
			c0.4,0.3,0.8,0.5,1.3,0.6C6.7,22.9,9,23,12,23c3,0,5.3-0.1,6.8-0.3c0.5,0,0.9-0.2,1.3-0.6c0.4-0.3,0.6-0.7,0.7-1.2
			c0.2-0.9,0.3-2.4,0.3-4.3C21.1,14.7,21,13.3,20.8,12.4z M8.1,13.6H6.8v7H5.6v-7H4.3v-1.2h3.8L8.1,13.6L8.1,13.6z M11.4,20.6h-1.1
			v-0.7c-0.4,0.5-0.9,0.7-1.3,0.7c-0.4,0-0.6-0.2-0.7-0.5c-0.1-0.2-0.1-0.5-0.1-0.9v-4.8h1.1V19c0,0.3,0,0.4,0,0.4
			c0,0.2,0.1,0.3,0.3,0.3c0.2,0,0.5-0.2,0.7-0.5v-4.6h1.1L11.4,20.6L11.4,20.6z M15.6,18.8c0,0.6,0,1-0.1,1.2
			c-0.1,0.4-0.4,0.7-0.9,0.7c-0.4,0-0.8-0.2-1.1-0.7v0.6h-1.1v-8.1h1.1v2.7c0.4-0.4,0.7-0.7,1.1-0.7c0.4,0,0.7,0.2,0.9,0.7
			c0.1,0.2,0.1,0.6,0.1,1.2V18.8z M19.7,17.8h-2.2v1.1c0,0.6,0.2,0.8,0.6,0.8c0.3,0,0.4-0.1,0.5-0.4c0-0.1,0-0.3,0-0.7h1.1v0.2
			c0,0.4,0,0.6,0,0.7c0,0.2-0.1,0.4-0.3,0.7c-0.3,0.4-0.7,0.7-1.3,0.7c-0.6,0-1-0.2-1.3-0.6c-0.2-0.3-0.4-0.8-0.4-1.4v-2.1
			c0-0.6,0.1-1.1,0.3-1.4c0.3-0.4,0.8-0.6,1.3-0.6c0.5,0,1,0.2,1.3,0.6c0.2,0.3,0.3,0.8,0.3,1.4L19.7,17.8L19.7,17.8z"/>
		<path d="M14,15.4c-0.2,0-0.4,0.1-0.6,0.3v3.7c0.2,0.2,0.4,0.3,0.6,0.3c0.3,0,0.5-0.3,0.5-0.8v-2.6C14.5,15.7,14.3,15.4,14,15.4z"
			/>
		<path d="M18.1,15.4c-0.4,0-0.6,0.3-0.6,0.8v0.6h1.1v-0.6C18.6,15.7,18.5,15.4,18.1,15.4z"/>
		<path d="M7.4,5.9v3.3h1.2V5.9L10.1,1H8.8L8,4.2L7.1,1H5.8c0.2,0.7,0.5,1.5,0.8,2.3C7,4.4,7.3,5.3,7.4,5.9z"/>
		<path d="M11.7,9.3c0.6,0,1-0.2,1.3-0.6c0.2-0.3,0.3-0.8,0.3-1.4V5.1c0-0.7-0.1-1.1-0.3-1.4C12.7,3.2,12.3,3,11.7,3
			c-0.5,0-1,0.2-1.3,0.6c-0.2,0.3-0.3,0.8-0.3,1.4v2.1c0,0.7,0.1,1.1,0.3,1.4C10.8,9.1,11.2,9.3,11.7,9.3z M11.2,4.9
			c0-0.6,0.2-0.8,0.5-0.8s0.5,0.3,0.5,0.8v2.6c0,0.6-0.2,0.9-0.5,0.9S11.2,8,11.2,7.4V4.9z"/>
		<path d="M15.1,9.3c0.4,0,0.8-0.3,1.3-0.8v0.7h1.1V3.1h-1.1v4.7c-0.2,0.4-0.5,0.5-0.7,0.5c-0.1,0-0.2-0.1-0.3-0.3c0,0,0-0.2,0-0.4
			V3.1h-1.1v4.8c0,0.4,0,0.7,0.1,0.9C14.5,9.2,14.7,9.3,15.1,9.3z"/>
	</g>
</g>
</svg>
