<?xml version="1.0" standalone="no"?>
<!DOCTYPE svg PUBLIC "-//W3C//DTD SVG 20010904//EN"
 "http://www.w3.org/TR/2001/REC-SVG-20010904/DTD/svg10.dtd">
<svg version="1.0" xmlns="http://www.w3.org/2000/svg"
 width="700.000000pt" height="700.000000pt" viewBox="0 0 700.000000 700.000000"
 preserveAspectRatio="xMidYMid meet">
<metadata>
Created by potrace 1.11, written by Peter Selinger 2001-2013
</metadata>
<g transform="translate(0.000000,700.000000) scale(0.100000,-0.100000)"
fill="#000000" stroke="none">
<path d="M0 3500 l0 -3500 3500 0 3500 0 0 3500 0 3500 -3500 0 -3500 0 0
-3500z m6820 0 l0 -3320 -3320 0 -3320 0 0 3320 0 3320 3320 0 3320 0 0 -3320z"/>
<path d="M2006 4925 c-124 -43 -160 -200 -68 -293 40 -39 71 -53 127 -54 98
-2 175 77 175 179 0 122 -119 207 -234 168z"/>
<path d="M2795 4931 c-1 -3 -3 -689 -3 -1523 0 -1125 3 -1518 12 -1520 19 -7
1258 -1 1296 5 19 3 53 9 75 12 273 42 588 198 776 385 185 184 347 520 384
795 4 28 9 61 11 75 9 56 5 472 -6 551 -37 277 -152 539 -332 759 -173 212
-511 393 -828 445 -25 4 -54 10 -65 13 -27 7 -1315 10 -1320 3z m1200 -305
c91 -8 236 -37 310 -61 87 -28 248 -114 312 -165 118 -94 214 -231 275 -388
32 -83 66 -204 73 -267 3 -22 7 -51 10 -65 22 -114 23 -457 1 -578 -48 -267
-190 -538 -348 -662 -155 -123 -320 -198 -543 -246 -16 -3 -142 -8 -280 -9
-240 -3 -611 -6 -647 -5 -17 0 -18 65 -18 1228 l0 1227 387 -1 c214 0 424 -4
468 -8z"/>
<path d="M1887 4212 c-2 -4 -3 -529 -3 -1167 l1 -1160 178 0 c97 0 178 2 178
5 1 3 2 526 3 1163 1 1021 -1 1158 -14 1162 -24 7 -340 4 -343 -3z"/>
</g>
</svg>
