<svg id="Layer_1" data-name="Layer 1" xmlns="http://www.w3.org/2000/svg" viewBox="0 0 175.56 40.03"><defs><style>.cls-1{fill:#ffa000}</style></defs><path class="cls-1" d="M16 11.8h5.86a8.81 8.81 0 0 1 6.48 2.27 8.64 8.64 0 0 1 2.29 6.44A8.74 8.74 0 0 1 28.31 27a8.84 8.84 0 0 1-6.49 2.28H16zm5.74 15.74a6.74 6.74 0 0 0 5.13-1.77 7.3 7.3 0 0 0 1.71-5.26q0-7-6.79-7H18v14.07z"/><path fill="none" stroke="#ffa000" stroke-miterlimit="10" d="M.5.5h39.03v39.03H.5z"/><path class="cls-1" d="M10.77 15.9h2.05v13.35h-2.05z"/><circle class="cls-1" cx="11.8" cy="12.82" r="1.03"/><path d="M57.08 26.81V14h1.48v12.81zm12.24-5.69v5.69h-1.46v-5.62a2.75 2.75 0 0 0-.5-1.84 2 2 0 0 0-1.58-.59 2.68 2.68 0 0 0-2 .78 2.87 2.87 0 0 0-.78 2.09v5.18h-1.45V20.3a19.4 19.4 0 0 0-.15-2.54h1.39l.14 1.62A3 3 0 0 1 64.17 18a3.74 3.74 0 0 1 1.89-.48c2.18.02 3.26 1.22 3.26 3.6zM74 18.91v4.95a2 2 0 0 0 .41 1.41 1.62 1.62 0 0 0 1.17.41 3 3 0 0 0 1-.17v1.25a4.17 4.17 0 0 1-1.26.18 2.77 2.77 0 0 1-2-.73 2.9 2.9 0 0 1-.73-2.15v-5.15H70.8v-1.15h1.76v-2.33l1.44-.52v2.85h2.59v1.15zm12 3.33h-6.69a3.89 3.89 0 0 0 .8 2.61 2.88 2.88 0 0 0 2.28.88 4.57 4.57 0 0 0 2.92-1.06l.48 1.06a4.09 4.09 0 0 1-1.52.88 5.63 5.63 0 0 1-1.9.33A4.44 4.44 0 0 1 79 25.69a4.76 4.76 0 0 1-1.2-3.43 5.37 5.37 0 0 1 .54-2.46 4.07 4.07 0 0 1 1.51-1.67 4.2 4.2 0 0 1 2.21-.59 3.55 3.55 0 0 1 2.83 1.18A4.81 4.81 0 0 1 86 22zm-5.68-2.88a3.3 3.3 0 0 0-.9 1.92h5.27a3.07 3.07 0 0 0-.75-1.94 2.34 2.34 0 0 0-1.77-.67 2.55 2.55 0 0 0-1.9.69zm12.89-1.71v1.33a2.75 2.75 0 0 0-1-.14 2.33 2.33 0 0 0-2 .82 3.13 3.13 0 0 0-.63 2v5.17h-1.41V20.3a19.4 19.4 0 0 0-.17-2.54h1.39l.14 1.67a2.77 2.77 0 0 1 1.1-1.4 3.26 3.26 0 0 1 2.56-.38zm1.33-3.73h1.78v1.66h-1.78zm.14 12.89v-9h1.46v9zm5.78-.45A3.79 3.79 0 0 1 99 24.72a5.39 5.39 0 0 1-.53-2.48 5.44 5.44 0 0 1 .53-2.49 3.82 3.82 0 0 1 1.5-1.63 4.65 4.65 0 0 1 4.5 0 3.82 3.82 0 0 1 1.5 1.63 5.44 5.44 0 0 1 .54 2.49 5.4 5.4 0 0 1-.54 2.48 3.79 3.79 0 0 1-1.5 1.64 4.65 4.65 0 0 1-4.5 0zm4.32-1.52a4 4 0 0 0 .72-2.6 3.94 3.94 0 0 0-.74-2.57 2.5 2.5 0 0 0-2.05-.91 2.53 2.53 0 0 0-2.07.91 4 4 0 0 0-.74 2.57 4 4 0 0 0 .73 2.6 2.55 2.55 0 0 0 2.08.89 2.52 2.52 0 0 0 2.07-.89zm9.52-7.19v1.33a2.85 2.85 0 0 0-1-.14 2.32 2.32 0 0 0-2 .82 3.08 3.08 0 0 0-.64 2v5.17h-1.46V20.3a21.46 21.46 0 0 0-.14-2.54h1.39l.14 1.67a2.72 2.72 0 0 1 1.1-1.4 3.07 3.07 0 0 1 1.73-.49 3 3 0 0 1 .88.11zm6.36-3.65H125a6.48 6.48 0 0 1 4.76 1.67 6.35 6.35 0 0 1 1.68 4.72 6.43 6.43 0 0 1-1.68 4.76 6.48 6.48 0 0 1-4.76 1.66h-4.3zm4.21 11.56a5 5 0 0 0 3.73-1.29 5.38 5.38 0 0 0 1.26-3.88c0-3.42-1.67-5.13-5-5.13h-2.74v10.3zm16.61-3.32h-6.64a3.89 3.89 0 0 0 .8 2.61 2.88 2.88 0 0 0 2.28.88 4.54 4.54 0 0 0 2.91-1.06l.49 1.06a4.17 4.17 0 0 1-1.52.88 5.63 5.63 0 0 1-1.9.33 4.44 4.44 0 0 1-3.33-1.25 4.76 4.76 0 0 1-1.2-3.43 5.24 5.24 0 0 1 .54-2.46 4 4 0 0 1 1.51-1.67 4.2 4.2 0 0 1 2.21-.59 3.55 3.55 0 0 1 2.83 1.18 4.81 4.81 0 0 1 1 3.25zm-5.68-2.88a3.37 3.37 0 0 0-.91 1.92h5.28a3.07 3.07 0 0 0-.75-1.94 2.34 2.34 0 0 0-1.77-.67 2.55 2.55 0 0 0-1.85.69zm7.34 6.41l.48-1.08a5.07 5.07 0 0 0 1.5.82 5.26 5.26 0 0 0 1.69.26 2.88 2.88 0 0 0 1.56-.35 1.17 1.17 0 0 0 .53-1 1.12 1.12 0 0 0-.36-.87 2.72 2.72 0 0 0-1.19-.5l-1.53-.36a3.39 3.39 0 0 1-1.75-.9 2.14 2.14 0 0 1-.62-1.55 2.33 2.33 0 0 1 1-1.93 4 4 0 0 1 2.52-.75 5.16 5.16 0 0 1 1.8.31 3.68 3.68 0 0 1 1.42.88l-.48 1.06a4.22 4.22 0 0 0-2.74-1.06 2.56 2.56 0 0 0-1.5.37 1.17 1.17 0 0 0-.54 1 1.16 1.16 0 0 0 .34.88 2.27 2.27 0 0 0 1.07.51l1.53.38a3.85 3.85 0 0 1 1.87.89 2.1 2.1 0 0 1 .61 1.57 2.18 2.18 0 0 1-1 1.87 4.28 4.28 0 0 1-2.59.71 5.29 5.29 0 0 1-3.62-1.16zm9.34-11.85h1.78v1.66h-1.78zm.14 12.89v-9h1.46v9zM165 17.76v9a4.14 4.14 0 0 1-1 3.05 4.14 4.14 0 0 1-3.05 1 6.64 6.64 0 0 1-3.57-.93l.25-1.19a7.61 7.61 0 0 0 1.63.7 6 6 0 0 0 1.69.22 2.65 2.65 0 0 0 2-.69 2.91 2.91 0 0 0 .66-2.07v-2.13a3 3 0 0 1-1.21 1.34 3.65 3.65 0 0 1-1.9.48 4.07 4.07 0 0 1-2.2-.54 3.72 3.72 0 0 1-1.43-1.58 5.82 5.82 0 0 1 0-4.72 3.72 3.72 0 0 1 1.43-1.58 4.07 4.07 0 0 1 2.12-.56 3.69 3.69 0 0 1 1.88.47 3 3 0 0 1 1.21 1.31v-1.58zm-2.2 6.68a3.61 3.61 0 0 0 .74-2.4 3.61 3.61 0 0 0-.74-2.4 2.59 2.59 0 0 0-2.06-.88 2.66 2.66 0 0 0-2.1.88 3.51 3.51 0 0 0-.77 2.4 3.51 3.51 0 0 0 .77 2.4 2.63 2.63 0 0 0 2.1.88 2.56 2.56 0 0 0 2.03-.88zm12.76-3.32v5.69h-1.46v-5.62a2.75 2.75 0 0 0-.51-1.84 2 2 0 0 0-1.58-.59 2.7 2.7 0 0 0-2 .78 2.86 2.86 0 0 0-.75 2.09v5.18h-1.46V20.3a21.46 21.46 0 0 0-.14-2.54H169l.15 1.62a3 3 0 0 1 1.26-1.38 3.69 3.69 0 0 1 1.89-.48c2.17.02 3.26 1.22 3.26 3.6z" fill="#fff"/></svg>