<svg id="Layer_1" data-name="Layer 1" xmlns="http://www.w3.org/2000/svg" viewBox="0 0 39 39"><defs><style>.cls-1{fill:#ffa000;}.cls-2{fill:none;stroke:#ffa000;stroke-miterlimit:10;}</style></defs><title>logo</title><path class="cls-1" d="M31.06,27h5.71a8.59,8.59,0,0,1,6.31,2.21,8.42,8.42,0,0,1,2.23,6.27,8.5,8.5,0,0,1-2.23,6.3A8.57,8.57,0,0,1,36.76,44H31.06Zm5.59,15.33a6.58,6.58,0,0,0,5-1.72,7.12,7.12,0,0,0,1.66-5.13q0-6.8-6.61-6.8H33V42.37Z" transform="translate(-15.5 -15.5)"/><rect class="cls-2" x="0.5" y="0.5" width="38" height="38"/><rect class="cls-1" x="10.5" y="15.5" width="2" height="13"/><circle class="cls-1" cx="27" cy="28" r="1" transform="translate(-18.63 37.1) rotate(-85.27)"/></svg>