<svg id="Layer_1" data-name="Layer 1" xmlns="http://www.w3.org/2000/svg" viewBox="0 0 175.56 40.03"><defs><style>.cls-1{fill:#ffa000;}.cls-2{fill:none;stroke:#ffa000;stroke-miterlimit:10;}.cls-3{fill:#fff;}</style></defs><title>logo-2</title><path class="cls-1" d="M16,11.8h5.86a8.81,8.81,0,0,1,6.48,2.27,8.64,8.64,0,0,1,2.29,6.44A8.74,8.74,0,0,1,28.31,27a8.84,8.84,0,0,1-6.49,2.28H16Zm5.74,15.74a6.74,6.74,0,0,0,5.13-1.77,7.3,7.3,0,0,0,1.71-5.26q0-7-6.79-7H18V27.58Z" transform="translate(0 0)"/><rect class="cls-2" x="0.5" y="0.5" width="39.03" height="39.03"/><rect class="cls-1" x="10.77" y="15.9" width="2.05" height="13.35"/><circle class="cls-1" cx="11.8" cy="12.82" r="1.03"/><path class="cls-3" d="M57.08,26.81V14h1.48V26.81Z" transform="translate(0 0)"/><path class="cls-3" d="M69.32,21.12v5.69H67.86V21.19a2.75,2.75,0,0,0-.5-1.84,2,2,0,0,0-1.58-.59,2.68,2.68,0,0,0-2,.78A2.87,2.87,0,0,0,63,21.63v5.18H61.55V20.3a19.4,19.4,0,0,0-.15-2.54h1.39l.14,1.62A3,3,0,0,1,64.17,18a3.74,3.74,0,0,1,1.89-.48C68.24,17.54,69.32,18.74,69.32,21.12Z" transform="translate(0 0)"/><path class="cls-3" d="M74,18.91v4.95a2,2,0,0,0,.41,1.41,1.62,1.62,0,0,0,1.17.41,3,3,0,0,0,1-.17v1.25a4.17,4.17,0,0,1-1.26.18,2.77,2.77,0,0,1-2-.73,2.9,2.9,0,0,1-.73-2.15V18.91H70.8V17.76h1.76V15.43L74,14.91v2.85h2.59v1.15Z" transform="translate(0 0)"/><path class="cls-3" d="M86,22.24H79.31a3.89,3.89,0,0,0,.8,2.61,2.88,2.88,0,0,0,2.28.88,4.57,4.57,0,0,0,2.92-1.06l.48,1.06a4.09,4.09,0,0,1-1.52.88,5.63,5.63,0,0,1-1.9.33A4.44,4.44,0,0,1,79,25.69a4.76,4.76,0,0,1-1.2-3.43,5.37,5.37,0,0,1,.54-2.46,4.07,4.07,0,0,1,1.51-1.67,4.2,4.2,0,0,1,2.21-.59,3.55,3.55,0,0,1,2.83,1.18A4.81,4.81,0,0,1,86,22Zm-5.68-2.88a3.3,3.3,0,0,0-.9,1.92h5.27a3.07,3.07,0,0,0-.75-1.94,2.34,2.34,0,0,0-1.77-.67A2.55,2.55,0,0,0,80.27,19.36Z" transform="translate(0 0)"/><path class="cls-3" d="M93.21,17.65l0,1.33a2.75,2.75,0,0,0-1-.14,2.33,2.33,0,0,0-2,.82,3.13,3.13,0,0,0-.63,2v5.17H88.17V20.3A19.4,19.4,0,0,0,88,17.76h1.39l.14,1.67a2.77,2.77,0,0,1,1.1-1.4,3.26,3.26,0,0,1,2.56-.38Z" transform="translate(0 0)"/><path class="cls-3" d="M94.54,13.92h1.78v1.66H94.54Zm.14,12.89v-9h1.46v9Z" transform="translate(0 0)"/><path class="cls-3" d="M100.46,26.36A3.79,3.79,0,0,1,99,24.72a5.39,5.39,0,0,1-.53-2.48A5.44,5.44,0,0,1,99,19.75a3.82,3.82,0,0,1,1.5-1.63,4.65,4.65,0,0,1,4.5,0,3.82,3.82,0,0,1,1.5,1.63,5.44,5.44,0,0,1,.54,2.49,5.4,5.4,0,0,1-.54,2.48,3.79,3.79,0,0,1-1.5,1.64,4.65,4.65,0,0,1-4.5,0Zm4.32-1.52a4,4,0,0,0,.72-2.6,3.94,3.94,0,0,0-.74-2.57,2.5,2.5,0,0,0-2.05-.91,2.53,2.53,0,0,0-2.07.91,4,4,0,0,0-.74,2.57,4,4,0,0,0,.73,2.6,2.55,2.55,0,0,0,2.08.89A2.52,2.52,0,0,0,104.78,24.84Z" transform="translate(0 0)"/><path class="cls-3" d="M114.3,17.65l0,1.33a2.85,2.85,0,0,0-1-.14,2.32,2.32,0,0,0-2,.82,3.08,3.08,0,0,0-.64,2v5.17h-1.46V20.3a21.46,21.46,0,0,0-.14-2.54h1.39l.14,1.67a2.72,2.72,0,0,1,1.1-1.4,3.07,3.07,0,0,1,1.73-.49A3,3,0,0,1,114.3,17.65Z" transform="translate(0 0)"/><path class="cls-3" d="M120.66,14H125a6.48,6.48,0,0,1,4.76,1.67,6.35,6.35,0,0,1,1.68,4.72,6.43,6.43,0,0,1-1.68,4.76A6.48,6.48,0,0,1,125,26.81h-4.3Zm4.21,11.56a5,5,0,0,0,3.73-1.29,5.38,5.38,0,0,0,1.26-3.88c0-3.42-1.67-5.13-5-5.13h-2.74v10.3Z" transform="translate(0 0)"/><path class="cls-3" d="M141.48,22.24h-6.64a3.89,3.89,0,0,0,.8,2.61,2.88,2.88,0,0,0,2.28.88,4.54,4.54,0,0,0,2.91-1.06l.49,1.06a4.17,4.17,0,0,1-1.52.88,5.63,5.63,0,0,1-1.9.33,4.44,4.44,0,0,1-3.33-1.25,4.76,4.76,0,0,1-1.2-3.43,5.24,5.24,0,0,1,.54-2.46,4,4,0,0,1,1.51-1.67,4.2,4.2,0,0,1,2.21-.59,3.55,3.55,0,0,1,2.83,1.18,4.81,4.81,0,0,1,1,3.25Zm-5.68-2.88a3.37,3.37,0,0,0-.91,1.92h5.28a3.07,3.07,0,0,0-.75-1.94,2.34,2.34,0,0,0-1.77-.67A2.55,2.55,0,0,0,135.8,19.36Z" transform="translate(0 0)"/><path class="cls-3" d="M143.14,25.77l.48-1.08a5.07,5.07,0,0,0,1.5.82,5.26,5.26,0,0,0,1.69.26,2.88,2.88,0,0,0,1.56-.35,1.17,1.17,0,0,0,.53-1,1.12,1.12,0,0,0-.36-.87,2.72,2.72,0,0,0-1.19-.5l-1.53-.36a3.39,3.39,0,0,1-1.75-.9,2.14,2.14,0,0,1-.62-1.55,2.33,2.33,0,0,1,1-1.93,4,4,0,0,1,2.52-.75,5.16,5.16,0,0,1,1.8.31,3.68,3.68,0,0,1,1.42.88l-.48,1.06a4.22,4.22,0,0,0-2.74-1.06,2.56,2.56,0,0,0-1.5.37,1.17,1.17,0,0,0-.54,1,1.16,1.16,0,0,0,.34.88,2.27,2.27,0,0,0,1.07.51l1.53.38a3.85,3.85,0,0,1,1.87.89,2.1,2.1,0,0,1,.61,1.57,2.18,2.18,0,0,1-1,1.87,4.28,4.28,0,0,1-2.59.71A5.29,5.29,0,0,1,143.14,25.77Z" transform="translate(0 0)"/><path class="cls-3" d="M152.48,13.92h1.78v1.66h-1.78Zm.14,12.89v-9h1.46v9Z" transform="translate(0 0)"/><path class="cls-3" d="M165,17.76v9a4.14,4.14,0,0,1-1,3.05,4.14,4.14,0,0,1-3.05,1,6.64,6.64,0,0,1-3.57-.93l.25-1.19a7.61,7.61,0,0,0,1.63.7,6,6,0,0,0,1.69.22,2.65,2.65,0,0,0,2-.69,2.91,2.91,0,0,0,.66-2.07V24.72a3,3,0,0,1-1.21,1.34,3.65,3.65,0,0,1-1.9.48A4.07,4.07,0,0,1,158.3,26a3.72,3.72,0,0,1-1.43-1.58,5.82,5.82,0,0,1,0-4.72,3.72,3.72,0,0,1,1.43-1.58,4.07,4.07,0,0,1,2.12-.56,3.69,3.69,0,0,1,1.88.47,3,3,0,0,1,1.21,1.31V17.76Zm-2.2,6.68a3.61,3.61,0,0,0,.74-2.4,3.61,3.61,0,0,0-.74-2.4,2.59,2.59,0,0,0-2.06-.88,2.66,2.66,0,0,0-2.1.88,3.51,3.51,0,0,0-.77,2.4,3.51,3.51,0,0,0,.77,2.4,2.63,2.63,0,0,0,2.1.88A2.56,2.56,0,0,0,162.77,24.44Z" transform="translate(0 0)"/><path class="cls-3" d="M175.56,21.12v5.69H174.1V21.19a2.75,2.75,0,0,0-.51-1.84,2,2,0,0,0-1.58-.59,2.7,2.7,0,0,0-2,.78,2.86,2.86,0,0,0-.75,2.09v5.18h-1.46V20.3a21.46,21.46,0,0,0-.14-2.54H169l.15,1.62A3,3,0,0,1,170.41,18a3.69,3.69,0,0,1,1.89-.48C174.47,17.54,175.56,18.74,175.56,21.12Z" transform="translate(0 0)"/></svg>